<?xml version="1.0" encoding="utf-8"?>
<!-- Generator: Adobe Illustrator 16.0.0, SVG Export Plug-In . SVG Version: 6.00 Build 0)  -->
<!DOCTYPE svg PUBLIC "-//W3C//DTD SVG 1.1//EN" "http://www.w3.org/Graphics/SVG/1.1/DTD/svg11.dtd">
<svg version="1.1" id="Layer_1" xmlns="http://www.w3.org/2000/svg" xmlns:xlink="http://www.w3.org/1999/xlink" x="0px" y="0px"
	 width="400px" height="346.383px" viewBox="0 0 400 346.383" enable-background="new 0 0 400 346.383" xml:space="preserve">
<g>
	<path fill="#FFFFFF" d="M299.996,115h-66.668h-66.666l33.33-57.5L233.32,0h-66.666l-33.328,57.73l-33.33,57.73l-33.33,57.73
		l33.338,57.904L133.342,289h66.666h66.666l33.33-57.904l33.328-58.048L299.996,115z M233.336,231H166.67l-33.336-58H200h66.666
		L233.336,231z"/>
	<g>
		<polygon fill="#146BFF" points="233.336,231 266.666,173 200,173 133.334,173 166.67,231 		"/>
		<polygon fill="#146BFF" points="366.662,115.461 333.324,57.73 299.988,0 233.32,0 199.992,57.5 166.662,115 233.328,115 
			299.996,115 333.332,172.961 300.004,230.98 266.674,289 200.008,289 133.342,289 100.004,231.096 66.666,173.278 99.996,115.504 
			133.326,57.752 166.654,0 99.988,0 66.658,57.73 33.33,115.461 0,173.191 33.338,230.922 66.675,288.461 100.012,346 166.679,346 
			233.344,346 300.012,346 333.34,288.461 366.67,230.826 400,173.144 		"/>
	</g>
</g>
</svg>
